<?xml version="1.0" standalone="no"?>
<!DOCTYPE svg PUBLIC "-//W3C//DTD SVG 20010904//EN"
 "http://www.w3.org/TR/2001/REC-SVG-20010904/DTD/svg10.dtd">
<svg version="1.0" xmlns="http://www.w3.org/2000/svg"
 width="150.000000pt" height="150.000000pt" viewBox="0 0 150.000000 150.000000"
 preserveAspectRatio="xMidYMid meet">

<g transform="translate(0.000000,150.000000) scale(0.100000,-0.100000)"
fill="#000000" stroke="none">
<path d="M0 750 l0 -750 750 0 750 0 0 750 0 750 -750 0 -750 0 0 -750z m1050
414 l0 -116 -77 -79 c-77 -79 -77 -79 -97 -60 -20 20 -20 20 47 90 57 59 67
74 67 105 0 20 -3 36 -8 36 -11 0 -182 -174 -182 -185 0 -5 56 -66 125 -135
l125 -127 0 -116 c0 -65 -3 -117 -7 -117 -5 0 -126 118 -270 262 l-263 263 0
-40 c0 -38 7 -47 140 -180 l140 -140 -170 -170 -170 -170 0 119 0 118 77 79
77 79 20 -20 20 -20 -67 -68 c-55 -55 -67 -73 -67 -100 0 -17 4 -32 8 -32 9 0
173 175 173 185 1 4 -54 62 -120 130 l-121 123 0 123 0 124 263 -263 c144
-144 265 -262 270 -262 4 0 7 16 7 36 0 32 -12 48 -141 176 l-141 141 164 164
c89 89 166 163 170 163 5 0 8 -52 8 -116z"/>
</g>
</svg>
